<svg width="339" height="79" viewBox="0 0 339 79" fill="none" xmlns="http://www.w3.org/2000/svg">
<path d="M73.755 47.475C81.975 47.925 87.54 48.15 90.45 48.15C91.14 48.15 91.68 47.955 92.07 47.565C92.49 47.145 92.7 46.59 92.7 45.9V41.85H82.35C79.2 41.85 76.905 41.145 75.465 39.735C74.055 38.295 73.35 36 73.35 32.85V31.5C73.35 28.35 74.055 26.07 75.465 24.66C76.905 23.22 79.2 22.5 82.35 22.5H98.145V28.8H84.15C82.35 28.8 81.45 29.7 81.45 31.5V32.4C81.45 34.2 82.35 35.1 84.15 35.1H92.25C95.19 35.1 97.35 35.79 98.73 37.17C100.11 38.55 100.8 40.71 100.8 43.65V45.9C100.8 48.84 100.11 51 98.73 52.38C97.35 53.76 95.19 54.45 92.25 54.45C90.72 54.45 89.1 54.42 87.39 54.36L83.25 54.18C80.19 54.03 77.025 53.82 73.755 53.55V47.475ZM132.296 54H124.196V41.175H112.946V54H104.846V22.5H112.946V34.875H124.196V22.5H132.296V54ZM152.568 54H136.368V47.7H140.418V28.8H136.368V22.5H152.568V28.8H148.518V47.7H152.568V54ZM156.614 22.5H175.514C178.664 22.5 180.944 23.22 182.354 24.66C183.794 26.07 184.514 28.35 184.514 31.5V36C184.514 39.15 183.794 41.445 182.354 42.885C180.944 44.295 178.664 45 175.514 45H164.714V54H156.614V22.5ZM176.414 31.5C176.414 29.7 175.514 28.8 173.714 28.8H164.714V38.7H173.714C175.514 38.7 176.414 37.8 176.414 36V31.5ZM213.537 54H188.562V22.5H213.537V28.8H196.662V34.875H209.937V41.175H196.662V47.7H213.537V54ZM222.752 54H213.977L225.902 22.5H234.902L246.827 54H238.052L236.027 48.375H224.777L222.752 54ZM226.802 42.525H234.002L230.402 31.95L226.802 42.525ZM248.13 47.475C256.35 47.925 261.915 48.15 264.825 48.15C265.515 48.15 266.055 47.955 266.445 47.565C266.865 47.145 267.075 46.59 267.075 45.9V41.85H256.725C253.575 41.85 251.28 41.145 249.84 39.735C248.43 38.295 247.725 36 247.725 32.85V31.5C247.725 28.35 248.43 26.07 249.84 24.66C251.28 23.22 253.575 22.5 256.725 22.5H272.52V28.8H258.525C256.725 28.8 255.825 29.7 255.825 31.5V32.4C255.825 34.2 256.725 35.1 258.525 35.1H266.625C269.565 35.1 271.725 35.79 273.105 37.17C274.485 38.55 275.175 40.71 275.175 43.65V45.9C275.175 48.84 274.485 51 273.105 52.38C271.725 53.76 269.565 54.45 266.625 54.45C265.095 54.45 263.475 54.42 261.765 54.36L257.625 54.18C254.565 54.03 251.4 53.82 248.13 53.55V47.475ZM304.196 54H279.221V22.5H304.196V28.8H287.321V34.875H300.596V41.175H287.321V47.7H304.196V54Z" fill="white"/>
<rect y="31.6001" width="18.2069" height="15.8" fill="white"/>
<rect x="54.6206" y="47.3999" width="18.2069" height="15.8" transform="rotate(180 54.6206 47.3999)" fill="white"/>
<path opacity="0.4" d="M18.207 31.5998L36.4139 15.7998V31.5998L18.207 47.3998V31.5998Z" fill="white"/>
<path opacity="0.6" d="M36.4137 47.3997L18.2068 63.1997L18.2068 47.3997L36.4137 31.5997L36.4137 47.3997Z" fill="white"/>
<path opacity="0.8" d="M0 31.6L36.4137 0V15.8L18.2069 31.6H0Z" fill="white"/>
<path opacity="0.8" d="M54.6206 47.4L18.2068 79L18.2068 63.2L36.4137 47.4L54.6206 47.4Z" fill="white"/>
</svg>
