<svg fill="none" xmlns="http://www.w3.org/2000/svg" viewBox="0.94 0.44 14.13 11.13"> <path d="M10 4H12.5M10 6H12.5M10 8H12.5M3 11H13C13.8284 11 14.5 10.3284 14.5 9.5V2.5C14.5 1.67157 13.8284 1 13 1H3C2.17157 1 1.5 1.67157 1.5 2.5V9.5C1.5 10.3284 2.17157 11 3 11ZM7 4.25C7 4.94036 6.44036 5.5 5.75 5.5C5.05964 5.5 4.5 4.94036 4.5 4.25C4.5 3.55964 5.05964 3 5.75 3C6.44036 3 7 3.55964 7 4.25ZM7.86258 8.47424C7.23263 8.80982 6.51347 9 5.74989 9C4.98632 9 4.26716 8.80982 3.63721 8.47424C3.95324 7.61383 4.77988 7 5.74989 7C6.71991 7 7.54655 7.61383 7.86258 8.47424Z" stroke="#BEBEBE" stroke-width="1.125" stroke-linecap="round" stroke-linejoin="round"></path> </svg>