<svg xmlns="http://www.w3.org/2000/svg" width="33" height="33" viewBox="0 0 33 33" fill="none">
  <path d="M16.5001 23.3958C18.1668 23.3958 19.5836 22.8123 20.7508 21.6452C21.9179 20.4781 22.501 19.0616 22.5001 17.3958C22.5001 15.7292 21.9165 14.3123 20.7494 13.1452C19.5823 11.9781 18.1659 11.3949 16.5001 11.3958C14.8334 11.3958 13.4165 11.9794 12.2494 13.1465C11.0823 14.3136 10.4992 15.7301 10.5001 17.3958C10.5001 19.0625 11.0836 20.4794 12.2508 21.6465C13.4179 22.8136 14.8343 23.3967 16.5001 23.3958ZM5.83342 28.0625C5.10008 28.0625 4.47208 27.8012 3.94942 27.2785C3.42675 26.7558 3.16586 26.1283 3.16675 25.3958V9.39583C3.16675 8.6625 3.42808 8.0345 3.95075 7.51183C4.47342 6.98917 5.10097 6.72828 5.83342 6.72917H10.0334L12.5001 4.0625H20.5001L22.9668 6.72917H27.1668C27.9001 6.72917 28.5281 6.9905 29.0508 7.51317C29.5734 8.03583 29.8343 8.66339 29.8334 9.39583V25.3958C29.8334 26.1292 29.5721 26.7572 29.0494 27.2798C28.5268 27.8025 27.8992 28.0634 27.1668 28.0625H5.83342Z" fill="#FAFAFA"/>
</svg>