<svg fill="none" xmlns="http://www.w3.org/2000/svg" viewBox="2.4 0.8 11.2 14.4"> <path fill-rule="evenodd" clip-rule="evenodd" d="M8.00002 0.800049C6.0118 0.800049 4.40002 2.41182 4.40002 4.40005V7.20013H3.99996C3.11631 7.20013 2.39996 7.91648 2.39996 8.80013V13.6001C2.39996 14.4838 3.11631 15.2001 3.99996 15.2001H12C12.8836 15.2001 13.6 14.4838 13.6 13.6001V8.80013C13.6 7.91648 12.8836 7.20013 12 7.20013H11.6V4.40005C11.6 2.41182 9.98825 0.800049 8.00002 0.800049ZM10.4 7.20013V4.40005C10.4 3.07457 9.32551 2.00005 8.00002 2.00005C6.67454 2.00005 5.60002 3.07457 5.60002 4.40005V7.20013H10.4Z" fill="#BEBEBE"></path> </svg>